<?xml version="1.0" encoding="UTF-8"?>
<svg width="212px" height="24px" viewBox="0 0 212 24" version="1.1" xmlns="http://www.w3.org/2000/svg" xmlns:xlink="http://www.w3.org/1999/xlink">
    <defs>
        <path d="M16.3089028,1 C17.0648717,1 17.6775994,1.60921789 17.6775994,2.35979337 C17.6775994,3.1108448 17.0648717,3.72006269 16.3089028,3.72006269 L10.3881047,3.72006269 L10.3881047,21.7372058 C10.3881047,22.4882573 9.7753771,23.0969992 9.01940822,23.0969992 L8.62513547,23.0969992 C7.86916659,23.0969992 7.25643896,22.4882573 7.25643896,21.7372058 L7.25643896,3.72006269 L1.36869651,3.72006269 C0.612727631,3.72006269 0,3.1108448 0,2.35979337 C0,1.60921789 0.612727631,1 1.36869651,1 L16.3089028,1 Z M47.140265,21.5415898 C47.140265,22.4006822 46.4402756,23.0969992 45.5772424,23.0969992 C44.7137309,23.0969992 44.0142197,22.4006822 44.0142197,21.5415898 L44.0142197,13.6369877 L31.1146213,13.6369877 L31.1146213,21.5415898 C31.1146213,22.4006822 30.4155882,23.0969992 29.5520768,23.0969992 C28.6895217,23.0969992 27.9895323,22.4006822 27.9895323,21.5415898 L27.9895323,2.55588538 C27.9895323,1.69679296 28.6895217,1 29.5520768,1 C30.4155882,1 31.1146213,1.69679296 31.1146213,2.55588538 L31.1146213,10.916925 L44.0142197,10.916925 L44.0142197,2.55588538 C44.0142197,1.69679296 44.7137309,1 45.5772424,1 C46.4402756,1 47.140265,1.69679296 47.140265,2.55588538 L47.140265,21.5415898 Z M60.3984645,2.55588538 C60.3984645,1.69679296 61.0578477,1 61.8713724,1 C62.6848971,1 63.3447311,1.69679296 63.3447311,2.55588538 L63.3447311,21.5411138 C63.3447311,22.4002062 62.6848971,23.0969992 61.8713724,23.0969992 C61.0578477,23.0969992 60.3984645,22.4002062 60.3984645,21.5411138 L60.3984645,2.55588538 Z M95.7536632,20.9476023 C95.7536632,22.1346253 94.7873287,23.0969992 93.5948308,23.0969992 C92.9120372,23.0969992 92.2689299,22.775256 91.862027,22.2293397 L79.7280976,5.97416888 L79.7280976,21.5739545 C79.7280976,22.4149607 79.0433915,23.0969992 78.1980281,23.0969992 L78.1330001,23.0969992 C77.2881148,23.0969992 76.6029306,22.4149607 76.6029306,21.5739545 L76.6029306,3.15082472 C76.6029306,1.96284984 77.5702214,1 78.7631975,1 C79.4455129,1 80.0876639,1.3207913 80.4950449,1.86527978 L92.6935242,18.1518634 L92.6935242,2.52352068 C92.6935242,1.68203847 93.3787084,1 94.2235937,1 C95.068479,1 95.7536632,1.68203847 95.7536632,2.52352068 L95.7536632,20.9476023 Z M107.538729,2.55588538 C107.538729,1.69679296 108.198563,1 109.012088,1 C109.825162,1 110.484996,1.69679296 110.484996,2.55588538 L110.484996,21.5415898 C110.484996,22.4006822 109.825162,23.0969992 109.012088,23.0969992 C108.198563,23.0969992 107.538729,22.4006822 107.538729,21.5415898 L107.538729,2.55588538 Z M123.745921,23.0969992 C123.345096,23.0969992 122.965654,22.9089984 122.711783,22.5848754 L115.446432,13.3157204 C114.722581,12.3923745 114.723946,11.0630421 115.449162,10.1411241 L122.243168,1.50974403 C122.497494,1.18704893 122.876026,1 123.275486,1 C124.399707,1 125.0221,2.36312503 124.315993,3.27790377 L117.910073,11.5756418 L124.924283,20.8290904 C125.619471,21.745773 124.995257,23.0969992 123.876496,23.0969992 L123.745921,23.0969992 Z M137.001395,2.55588538 C137.001395,1.69679296 137.660879,1 138.474528,1 C139.288178,1 139.947662,1.69679296 139.947662,2.55588538 L139.947662,21.5411138 C139.947662,22.4002062 139.288178,23.0969992 138.474528,23.0969992 C137.660879,23.0969992 137.001395,22.4002062 137.001395,21.5411138 L137.001395,2.55588538 Z M165.474631,11.0473357 C166.224446,11.0473357 166.832377,11.6489383 166.832377,12.3909467 C166.832377,13.132955 166.224446,13.7345577 165.474631,13.7345577 L156.349887,13.7345577 L156.349887,21.7533882 C156.349887,22.4953965 155.742436,23.0969992 154.992141,23.0969992 L154.563607,23.0969992 C153.813793,23.0969992 153.205861,22.4953965 153.205861,21.7533882 L153.205861,2.37216811 C153.205861,1.61445336 153.826779,1 154.591984,1 L166.579393,1 C167.334017,1 167.943872,1.60969384 167.937139,2.35646171 L167.936658,2.38882641 C167.929443,3.12607525 167.323917,3.72006269 166.578912,3.72006269 L156.349887,3.72006269 L156.349887,11.0473357 L165.474631,11.0473357 Z M178.626065,2.64552122 C178.626065,1.79690242 179.315,1.1086044 180.164405,1.1086044 C181.013809,1.1086044 181.702745,1.79690242 181.702745,2.64552122 L181.702745,21.3992915 C181.702745,22.2479103 181.013809,22.9362083 180.164405,22.9362083 C179.315,22.9362083 178.626065,22.2479103 178.626065,21.3992915 L178.626065,2.64552122 Z M192.945002,11.9902011 C192.945002,5.83407119 197.998606,1.01222387 204.449375,1.01222387 C206.937825,1.01222387 209.456862,1.84391731 211.465316,3.28774464 C212.079899,3.72921448 212.173545,4.61027355 211.700137,5.20031044 L211.644138,5.26895219 C211.197553,5.82560851 210.384384,5.94690693 209.813565,5.51813111 C208.248402,4.34040807 206.357124,3.66621452 204.514316,3.66621452 C199.788238,3.66621452 196.085681,7.3084582 196.085681,11.958231 C196.085681,16.6253993 199.788238,20.2817475 204.514316,20.2817475 C206.319948,20.2817475 208.224402,19.6352927 209.836153,18.5078756 C210.398501,18.114361 211.160377,18.1858236 211.618726,18.6959352 C212.141075,19.2770392 212.070487,20.1947699 211.441786,20.6578666 C209.340628,22.2051267 206.781591,23.0969992 204.320435,23.0969992 C197.942136,23.0969992 192.945002,18.2182639 192.945002,11.9902011 Z" id="path-1"></path>
    </defs>
    <g id="logo" stroke="none" stroke-width="1" fill="none" fill-rule="evenodd">
        <mask id="mask-2" fill="white">
            <use xlink:href="#path-1"></use>
        </mask>
        <use id="Combined-Shape" fill="white" xlink:href="#path-1"></use>
    </g>
</svg>
